<svg width="32" height="78" viewBox="0 0 32 78" fill="none" xmlns="http://www.w3.org/2000/svg">
<path d="M15.0576 76.0532H14.0576V77.0532H15.0576V76.0532ZM15.0576 14.6532H16.0576V13.6532H15.0576V14.6532ZM1.05762 14.6532H0.0576173V15.6532H1.05762V14.6532ZM1.05762 1.65322L1.05423 0.653227L0.0576173 0.656605V1.65322H1.05762ZM30.5576 1.55322H31.5576V0.54982L30.5542 0.553222L30.5576 1.55322ZM30.5576 76.0532V77.0532H31.5576V76.0532H30.5576ZM16.0576 76.0532V14.6532H14.0576V76.0532H16.0576ZM15.0576 13.6532H1.05762V15.6532H15.0576V13.6532ZM2.05762 14.6532V1.65322H0.0576173V14.6532H2.05762ZM1.06101 2.65322L30.561 2.55321L30.5542 0.553222L1.05423 0.653227L1.06101 2.65322ZM29.5576 1.55322V76.0532H31.5576V1.55322H29.5576ZM30.5576 75.0532H15.0576V77.0532H30.5576V75.0532Z" fill="#595959"/>
</svg>
