<svg width="56" height="78" viewBox="0 0 56 78" fill="none" xmlns="http://www.w3.org/2000/svg">
<path d="M11.1459 72.4708L10.6026 73.3104L10.6082 73.3139L11.1459 72.4708ZM1.5459 60.5708L1.04823 59.7034L0.312306 60.1257L0.609057 60.9205L1.5459 60.5708ZM13.7459 53.5708L14.6851 53.2274L14.2776 52.1128L13.2482 52.7034L13.7459 53.5708ZM35.6459 59.8708L36.3298 60.6003L36.3306 60.5996L35.6459 59.8708ZM35.7459 43.5708L35.062 44.3003L35.0681 44.3061L35.0744 44.3118L35.7459 43.5708ZM18.5459 42.4708L17.6444 42.9035L18.0841 43.8197L18.9931 43.3652L18.5459 42.4708ZM14.9459 34.9708L14.2111 34.2925L13.7506 34.7914L14.0444 35.4035L14.9459 34.9708ZM34.1459 14.1708L34.8807 14.8491L36.4299 13.1708H34.1459V14.1708ZM4.9459 14.1708H3.9459V15.1708H4.9459V14.1708ZM4.9459 1.17077V0.17077H3.9459V1.17077H4.9459ZM51.4459 1.17077H52.4459V0.17077H51.4459V1.17077ZM51.4459 13.1708L52.1928 13.8357L52.4459 13.5514V13.1708H51.4459ZM36.8459 29.5708L36.099 28.9058L34.9026 30.2497L36.6756 30.5562L36.8459 29.5708ZM49.6459 36.6708L48.8743 37.307L48.881 37.3149L49.6459 36.6708ZM50.8459 64.2708L49.9923 63.7499L49.9923 63.7499L50.8459 64.2708ZM41.0459 73.5708L41.5158 74.4536L41.5267 74.4476L41.0459 73.5708ZM26.9459 75.8708C21.1857 75.8708 16.1089 74.4496 11.6836 71.6276L10.6082 73.3139C15.3829 76.3586 20.8394 77.8708 26.9459 77.8708V75.8708ZM11.6892 71.6312C7.33396 68.8131 4.2733 65.0172 2.48274 60.221L0.609057 60.9205C2.55183 66.1244 5.89117 70.2617 10.6026 73.3103L11.6892 71.6312ZM2.04357 61.4381L14.2436 54.4381L13.2482 52.7034L1.04823 59.7034L2.04357 61.4381ZM12.8067 53.9141C13.9939 57.1616 15.7689 59.6716 18.1699 61.3633C20.5718 63.0555 23.5179 63.8708 26.9459 63.8708V61.8708C23.8406 61.8708 21.32 61.1361 19.3219 59.7283C17.3229 58.3199 15.7645 56.1799 14.6851 53.2274L12.8067 53.9141ZM26.9459 63.8708C30.7992 63.8708 33.9672 62.8153 36.3298 60.6003L34.962 59.1412C33.0579 60.9263 30.4259 61.8708 26.9459 61.8708V63.8708ZM36.3306 60.5996C38.7623 58.3152 39.9459 55.2686 39.9459 51.5708H37.9459C37.9459 54.8063 36.9295 57.293 34.9612 59.1419L36.3306 60.5996ZM39.9459 51.5708C39.9459 47.9443 38.798 44.9872 36.4174 42.8298L35.0744 44.3118C36.9605 46.021 37.9459 48.3972 37.9459 51.5708H39.9459ZM36.4298 42.8412C34.064 40.6233 30.8603 39.5708 26.9459 39.5708V41.5708C30.4982 41.5708 33.1611 42.5183 35.062 44.3003L36.4298 42.8412ZM26.9459 39.5708C23.7371 39.5708 20.7821 40.2346 18.0987 41.5763L18.9931 43.3652C21.3763 42.1736 24.0214 41.5708 26.9459 41.5708V39.5708ZM19.4474 42.038L15.8474 34.538L14.0444 35.4035L17.6444 42.9035L19.4474 42.038ZM15.6807 35.6491L34.8807 14.8491L33.4111 13.4925L14.2111 34.2925L15.6807 35.6491ZM34.1459 13.1708H4.9459V15.1708H34.1459V13.1708ZM5.9459 14.1708V1.17077H3.9459V14.1708H5.9459ZM4.9459 2.17077H51.4459V0.17077H4.9459V2.17077ZM50.4459 1.17077V13.1708H52.4459V1.17077H50.4459ZM50.699 12.5058L36.099 28.9058L37.5928 30.2357L52.1928 13.8357L50.699 12.5058ZM36.6756 30.5562C41.8683 31.4537 45.9106 33.7126 48.8744 37.307L50.4174 36.0346C47.1145 32.0289 42.6235 29.5545 37.0162 28.5854L36.6756 30.5562ZM48.881 37.3149C51.9062 40.9073 53.4459 45.4348 53.4459 50.9708H55.4459C55.4459 45.0401 53.7856 40.0343 50.4108 36.0266L48.881 37.3149ZM53.4459 50.9708C53.4459 55.7338 52.2897 59.9846 49.9923 63.7499L51.6995 64.7916C54.2021 60.6903 55.4459 56.0744 55.4459 50.9708H53.4459ZM49.9923 63.7499C47.6855 67.5305 44.5489 70.5093 40.5651 72.694L41.5267 74.4476C45.8096 72.0989 49.2063 68.8777 51.6995 64.7916L49.9923 63.7499ZM40.5761 72.688C36.6046 74.8019 32.0694 75.8708 26.9459 75.8708V77.8708C32.3557 77.8708 37.2205 76.7397 41.5157 74.4535L40.5761 72.688Z" fill="#595959"/>
</svg>
