<svg width="54" height="79" viewBox="0 0 54 79" fill="none" xmlns="http://www.w3.org/2000/svg">
<path d="M1.65176 77.0532L0.651793 77.0616L0.660056 78.0532H1.65176V77.0532ZM1.55176 65.0532L0.83428 64.3566L0.548372 64.6511L0.551793 65.0616L1.55176 65.0532ZM21.5518 44.4532L22.2692 45.1498L22.2706 45.1484L21.5518 44.4532ZM30.4518 34.8532L29.694 34.2007L29.6925 34.2024L30.4518 34.8532ZM34.6518 28.8532L33.7573 28.406L33.7498 28.4212L33.7427 28.4366L34.6518 28.8532ZM33.3518 17.7532L32.6592 18.4746L32.6669 18.482L32.6747 18.4891L33.3518 17.7532ZM18.8518 17.8532L19.4399 18.662L19.4442 18.6589L18.8518 17.8532ZM14.0518 24.6532L13.5541 25.5206L14.6067 26.1245L14.9983 24.9759L14.0518 24.6532ZM1.85176 17.6532L0.906922 17.3257L0.635599 18.1083L1.35409 18.5206L1.85176 17.6532ZM11.3518 5.75322L10.8141 4.91006L10.8141 4.91006L11.3518 5.75322ZM39.9518 3.95322L39.5113 4.85104L39.5179 4.85422L39.9518 3.95322ZM48.3518 11.2532L49.1947 10.7152L49.1947 10.7152L48.3518 11.2532ZM48.0518 33.9532L48.9093 34.4677L48.9133 34.4609L48.0518 33.9532ZM38.0518 46.2532L37.3394 45.5514L37.3347 45.5563L38.0518 46.2532ZM20.7518 64.0532L20.0347 63.3563L18.3854 65.0532H20.7518V64.0532ZM52.2518 64.0532H53.2518V63.0532H52.2518V64.0532ZM52.2518 77.0532V78.0532H53.2518V77.0532H52.2518ZM2.65172 77.0449L2.55172 65.0449L0.551793 65.0616L0.651793 77.0616L2.65172 77.0449ZM2.26924 65.7498L22.2692 45.1498L20.8343 43.7566L0.83428 64.3566L2.26924 65.7498ZM22.2706 45.1484C26.2083 41.0772 29.1914 37.8602 31.211 35.504L29.6925 34.2024C27.7121 36.5129 24.7618 39.6959 20.833 43.758L22.2706 45.1484ZM31.2095 35.5057C33.2969 33.0817 34.769 30.9976 35.5608 29.2699L33.7427 28.4366C33.0679 29.9089 31.74 31.8247 29.694 34.2007L31.2095 35.5057ZM35.5462 29.3004C36.4041 27.5847 36.8518 25.8657 36.8518 24.1532H34.8518C34.8518 25.5074 34.4995 26.9218 33.7573 28.406L35.5462 29.3004ZM36.8518 24.1532C36.8518 21.2029 35.9433 18.7786 34.0288 17.0173L32.6747 18.4891C34.0936 19.7945 34.8518 21.6369 34.8518 24.1532H36.8518ZM34.0443 17.0318C32.149 15.2124 29.6112 14.3532 26.5518 14.3532V16.3532C29.2257 16.3532 31.2212 17.0941 32.6592 18.4746L34.0443 17.0318ZM26.5518 14.3532C23.4763 14.3532 20.7012 15.2521 18.2594 17.0476L19.4442 18.6589C21.5357 17.121 23.8939 16.3532 26.5518 16.3532V14.3532ZM18.2636 17.0445C15.8744 18.7821 14.1621 21.2303 13.1052 24.3305L14.9983 24.9759C15.9414 22.2095 17.4292 20.1243 19.4399 18.662L18.2636 17.0445ZM14.5494 23.7859L2.34943 16.7859L1.35409 18.5206L13.5541 25.5206L14.5494 23.7859ZM2.79659 17.9808C4.45372 13.2006 7.47299 9.41265 11.8894 6.59637L10.8141 4.91006C6.03053 7.96045 2.71647 12.1058 0.906922 17.3257L2.79659 17.9808ZM11.8894 6.59637C16.3077 3.77893 21.5156 2.35322 27.5518 2.35322V0.35322C21.188 0.35322 15.5958 1.86084 10.8141 4.91006L11.8894 6.59637ZM27.5518 2.35322C32.163 2.35322 36.1401 3.1972 39.5113 4.85101L40.3922 3.05543C36.6967 1.24257 32.4072 0.35322 27.5518 0.35322V2.35322ZM39.5179 4.85422C42.9635 6.51321 45.6163 8.82634 47.5088 11.7913L49.1947 10.7152C47.0872 7.41343 44.14 4.85989 40.3856 3.05222L39.5179 4.85422ZM47.5088 11.7913C49.3934 14.7437 50.3518 18.2184 50.3518 22.2532H52.3518C52.3518 17.888 51.3102 14.0294 49.1947 10.7152L47.5088 11.7913ZM50.3518 22.2532C50.3518 26.1296 49.3057 29.8556 47.1902 33.4455L48.9133 34.4609C51.1978 30.5842 52.3518 26.5102 52.3518 22.2532H50.3518ZM47.1943 33.4387C45.0496 37.0131 41.7747 41.0499 37.3394 45.5514L38.7641 46.9551C43.2622 42.3899 46.6539 38.2267 48.9093 34.4677L47.1943 33.4387ZM37.3347 45.5563L20.0347 63.3563L21.4689 64.7502L38.7689 46.9502L37.3347 45.5563ZM20.7518 65.0532H52.2518V63.0532H20.7518V65.0532ZM51.2518 64.0532V77.0532H53.2518V64.0532H51.2518ZM52.2518 76.0532H1.65176V78.0532H52.2518V76.0532Z" fill="#595959"/>
</svg>
